<svg class="w-5 h-5" viewBox="0 0 24 24"><path d="M17.252,12.248c0-1.745,1.488-3.92,1.488-3.92c-1.002-1.544-2.738-1.77-3.328-1.791c-1.39-.089-2.738.822-3.417.822c-.68,0-1.77-.822-3.15-.822c-1.467,0-2.872.866-3.667,2.2c-1.556,2.667-.4,6.488,1.156,8.622c.778,1.066,1.644,2.266,2.822,2.244c1.111-.022,1.511-.711,2.888-.711c1.378,0,1.734.711,2.889.689c1.222-.022,1.911-1.089,2.667-2.133c.917-1.25.992-2.457.992-2.512c0-.044-2.11-.822-2.11-3.111Zm-5.356-7.466c.644-.778,1.133-1.844.978-2.911c-.778.067-1.866.644-2.533,1.422c-.555.667-1.155,1.8-1.022,2.844c.889.111,1.933-.6,2.577-1.355Z" fill="currentColor"></path></svg>