<svg width="68" height="21" viewBox="0 0 68 21" fill="none" xmlns="http://www.w3.org/2000/svg">
<path d="M5.114 10.432C4.87933 10.9013 4.762 11.3813 4.762 11.872C4.762 12.3413 4.84733 12.7893 5.018 13.216C5.18867 13.6427 5.434 14.0373 5.754 14.4C6.09533 14.7413 6.50067 15.008 6.97 15.2C7.93 15.584 8.84733 15.6053 9.722 15.264C10.618 14.9227 11.3007 14.2827 11.77 13.344C11.962 12.8747 12.0473 12.4053 12.026 11.936C12.0047 11.4453 11.9087 10.9867 11.738 10.56C11.5673 10.1333 11.322 9.74933 11.002 9.408C10.682 9.04533 10.3087 8.768 9.882 8.576C9.434 8.384 8.96467 8.288 8.474 8.288C7.98333 8.26667 7.52467 8.34133 7.098 8.512C6.67133 8.68267 6.27667 8.928 5.914 9.248C5.57267 9.568 5.306 9.96267 5.114 10.432ZM15.738 15.008C15.29 16.0747 14.6713 16.9813 13.882 17.728C13.114 18.4533 12.25 19.008 11.29 19.392C10.3513 19.776 9.34867 19.968 8.282 19.968C7.21533 19.9467 6.15933 19.7013 5.114 19.232C4.11133 18.8053 3.258 18.208 2.554 17.44C1.85 16.672 1.306 15.808 0.922 14.848C0.538 13.888 0.335333 12.8853 0.314 11.84C0.314 10.7733 0.527333 9.73867 0.954 8.736C1.42333 7.69067 2.05267 6.79467 2.842 6.048C3.65267 5.30133 4.538 4.74667 5.498 4.384C6.458 4 7.46067 3.81867 8.506 3.84C9.55133 3.84 10.5753 4.07467 11.578 4.544C12.5807 4.97067 13.4447 5.57867 14.17 6.368C14.8953 7.136 15.4393 8 15.802 8.96C16.186 9.89867 16.378 10.9013 16.378 11.968C16.378 13.0133 16.1647 14.0267 15.738 15.008ZM19.976 9.376C19.3573 9.376 18.8133 9.14133 18.344 8.672C17.8747 8.20267 17.64 7.65867 17.64 7.04C17.64 6.42133 17.8747 5.90933 18.344 5.504C18.8133 5.07733 19.3573 4.864 19.976 4.864V3.04C19.976 2.42133 20.2107 1.90933 20.68 1.504C21.1493 1.07733 21.6933 0.863998 22.312 0.863998C22.9093 0.863998 23.4107 1.07733 23.816 1.504C24.2213 1.90933 24.424 2.42133 24.424 3.04V3.808H25.512C26.1307 3.808 26.6747 4.01067 27.144 4.416C27.6133 4.82133 27.848 5.33333 27.848 5.952C27.848 6.57067 27.6133 7.11467 27.144 7.584C26.6747 8.05333 26.1307 8.288 25.512 8.288H24.424V13.856C24.5093 14.3253 24.6587 14.7307 24.872 15.072C25.1067 15.392 25.3733 15.7013 25.672 16C26.1413 16.384 26.44 16.8853 26.568 17.504C26.696 18.1013 26.5573 18.6347 26.152 19.104C25.7467 19.5733 25.2667 19.8507 24.712 19.936C24.1573 20 23.6027 19.8827 23.048 19.584C22.1947 18.88 21.512 18.0373 21 17.056C20.488 16.0747 20.1467 15.008 19.976 13.856V9.376ZM33.4728 17.568C33.4728 18.1867 33.2701 18.7307 32.8648 19.2C32.4594 19.6693 31.9474 19.904 31.3288 19.904C30.7101 19.904 30.1661 19.6693 29.6968 19.2C29.2274 18.7307 28.9928 18.1867 28.9928 17.568V2.88C28.9928 2.26133 29.2274 1.74933 29.6968 1.344C30.1661 0.917332 30.7101 0.703999 31.3288 0.703999C31.9474 0.703999 32.4594 0.917332 32.8648 1.344C33.2701 1.74933 33.4728 2.26133 33.4728 2.88V17.568ZM39.364 10.432C39.1293 10.9013 39.012 11.3813 39.012 11.872C39.012 12.3413 39.0973 12.7893 39.268 13.216C39.4387 13.6427 39.684 14.0373 40.004 14.4C40.3453 14.7413 40.7507 15.008 41.22 15.2C42.18 15.584 43.0973 15.6053 43.972 15.264C44.868 14.9227 45.5507 14.2827 46.02 13.344C46.212 12.8747 46.2973 12.4053 46.276 11.936C46.2547 11.4453 46.1587 10.9867 45.988 10.56C45.8173 10.1333 45.572 9.74933 45.252 9.408C44.932 9.04533 44.5587 8.768 44.132 8.576C43.684 8.384 43.2147 8.288 42.724 8.288C42.2333 8.26667 41.7747 8.34133 41.348 8.512C40.9213 8.68267 40.5267 8.928 40.164 9.248C39.8227 9.568 39.556 9.96267 39.364 10.432ZM49.988 15.008C49.54 16.0747 48.9213 16.9813 48.132 17.728C47.364 18.4533 46.5 19.008 45.54 19.392C44.6013 19.776 43.5987 19.968 42.532 19.968C41.4653 19.9467 40.4093 19.7013 39.364 19.232C38.3613 18.8053 37.508 18.208 36.804 17.44C36.1 16.672 35.556 15.808 35.172 14.848C34.788 13.888 34.5853 12.8853 34.564 11.84C34.564 10.7733 34.7773 9.73867 35.204 8.736C35.6733 7.69067 36.3027 6.79467 37.092 6.048C37.9027 5.30133 38.788 4.74667 39.748 4.384C40.708 4 41.7107 3.81867 42.756 3.84C43.8013 3.84 44.8253 4.07467 45.828 4.544C46.8307 4.97067 47.6947 5.57867 48.42 6.368C49.1453 7.136 49.6893 8 50.052 8.96C50.436 9.89867 50.628 10.9013 50.628 11.968C50.628 13.0133 50.4147 14.0267 49.988 15.008ZM51.954 3.008C51.954 2.38933 52.1567 1.87733 52.562 1.472C52.9673 1.06667 53.4793 0.863998 54.098 0.863998C54.7167 0.863998 55.2607 1.06667 55.73 1.472C56.1993 1.87733 56.434 2.38933 56.434 3.008V4.736C56.9887 4.50133 57.5433 4.30933 58.098 4.16C58.6527 4.01067 59.2713 3.936 59.954 3.936C61.042 3.936 62.066 4.14933 63.026 4.576C64.0073 4.98133 64.8607 5.54667 65.586 6.272C66.3327 6.99733 66.9193 7.85067 67.346 8.832C67.7727 9.81333 67.986 10.8587 67.986 11.968C67.986 13.0347 67.7727 14.0587 67.346 15.04C66.9193 16 66.3327 16.8533 65.586 17.6C64.8607 18.3253 64.0073 18.912 63.026 19.36C62.066 19.7867 61.042 20 59.954 20C59.506 20 59.0793 19.9573 58.674 19.872C58.2687 19.7867 57.8847 19.6693 57.522 19.52C57.0953 19.7547 56.6687 19.8933 56.242 19.936C55.8367 19.9573 55.4313 19.8187 55.026 19.52C54.1727 18.9013 53.458 18.112 52.882 17.152C52.3273 16.192 52.018 15.136 51.954 13.984V3.008ZM63.506 11.968C63.506 11.456 63.41 10.9867 63.218 10.56C63.0473 10.112 62.802 9.71733 62.482 9.376C62.1833 9.03467 61.81 8.768 61.362 8.576C60.9353 8.384 60.466 8.288 59.954 8.288C59.0367 8.288 58.2473 8.58667 57.586 9.184C56.946 9.78133 56.562 10.496 56.434 11.328V12.576C56.562 13.4293 56.946 14.1333 57.586 14.688C58.2473 15.2427 59.0367 15.52 59.954 15.52C60.466 15.52 60.9353 15.4347 61.362 15.264C61.81 15.072 62.1833 14.816 62.482 14.496C62.802 14.176 63.0473 13.8027 63.218 13.376C63.41 12.9493 63.506 12.48 63.506 11.968Z" fill="#FA3A46"/>
</svg>
